The Day of the Triffids (2009) 1080p mkv x264 AC3+DTS NL Subs
.
RELEASE DATE HD: 02/03/2012
.
[IMG]http://img37.imageshack.us/img37/2086/tdot2012.jpg[/IMG]
.
Verenigd Koninkrijk
Sciencefiction / Thriller
180 minuten (miniserie, 2 delen)

geregisseerd door Nick Copus
met Dougray Scott, Joely Richardson en Brian Cox

In de toekomst heeft de zoektocht naar alternatieve brandstoffen geleid tot de ontdekking van de Triffid, een koolachtige plant die een eigen leven lijkt te leiden. Tijdens een wereldwijde zonnestorm worden miljarden mensen blind en komen de Triffids tot leven en ontsnappen ze. De overlevenden moeten nu, onder aanvoering van dr. Bill Masen (Dougray Scott), de vleesetende Triffids zien te stoppen.
. 
http://www.moviemeter.nl/film/62454
.
PLOT
.
It's an up-to-date setting of the 1951 sci-fi thriller. With the world blinded and the Triffids set loose...
. 
http://www.imdb.com/title/tt1332653/
.
INFO
.
NL Subs: ript from the Retail DVD
.
Format                           : Matroska
Format version                   : Version 2
File size                        : 10.3 GiB
Duration                         : 1h 32mn
Overall bit rate                 : 15.8 Mbps
Encoded date                     : UTC 2012-02-08 20:54:27
Writing application              : mkvmerge v5.2.0 ('I can't explain') built on Dec 18 2011 18:12:03
Writing library                  : libebml v1.2.3 + libmatroska v1.3.0

Video
ID                               : 1
Format                           : AVC
Format/Info                      : Advanced Video Codec
Format profile                   : High@L4.1
Format settings, CABAC           : Yes
Format settings, ReFrames        : 4 frames
Codec ID                         : V_MPEG4/ISO/AVC
Duration                         : 1h 32mn
Bit rate                         : 13.9 Mbps
Width                            : 1 920 pixels
Height                           : 1 080 pixels
Display aspect ratio             : 16:9
Frame rate                       : 24.000 fps
Color space                      : YUV
Chroma subsampling               : 4:2:0
Bit depth                        : 8 bits
Scan type                        : Progressive
Bits/(Pixel*Frame)               : 0.279
Stream size                      : 8.80 GiB (86%)
Title                            : The.Day.of.the.Triffids.2009.BluRay.1080p.DTS.x264-CHD
Writing library                  : x264 core 120 r2146+650 183470d
Encoding settings                : cabac=1 / ref=4 / deblock=1:-3:-3 / analyse=0x3:0x113 / me=umh / subme=10 / psy=1 / fade_compensate=0.00 / psy_rd=1.05:0.10 / mixed_ref=1 / me_range=48 / chroma_me=1 / trellis=2 / 8x8dct=1 / cqm=1 / deadzone=21,11 / fast_pskip=0 / chroma_qp_offset=-2 / threads=12 / sliced_threads=0 / nr=0 / decimate=1 / interlaced=0 / bluray_compat=0 / constrained_intra=0 / fgo=0 / bframes=6 / b_pyramid=2 / b_adapt=2 / b_bias=0 / direct=3 / weightb=1 / open_gop=0 / weightp=2 / keyint=250 / keyint_min=24 / scenecut=40 / intra_refresh=0 / rc_lookahead=60 / rc=2pass / mbtree=1 / bitrate=13901 / ratetol=2.0 / qcomp=0.70 / qpmin=3 / qpmax=69 / qpstep=4 / cplxblur=20.0 / qblur=0.5 / vbv_maxrate=40000 / vbv_bufsize=30000 / nal_hrd=none / ip_ratio=1.40 / aq=2:1.00
Language                         : English
Default                          : No
Forced                           : No

Audio #1
ID                               : 2
Format                           : DTS
Format/Info                      : Digital Theater Systems
Codec ID                         : A_DTS
Duration                         : 1h 32mn
Bit rate mode                    : Constant
Bit rate                         : 1 510 Kbps
Channel(s)                       : 6 channels
Channel positions                : Front: L C R, Side: L R, LFE
Sampling rate                    : 48.0 KHz
Bit depth                        : 24 bits
Compression mode                 : Lossy
Stream size                      : 1 003 MiB (10%)
Title                            : DTS-HDMA
Language                         : English
Default                          : Yes
Forced                           : No

Audio #2
ID                               : 3
Format                           : AC-3
Format/Info                      : Audio Coding 3
Mode extension                   : CM (complete main)
Codec ID                         : A_AC3
Duration                         : 1h 32mn
Bit rate mode                    : Constant
Bit rate                         : 448 Kbps
Channel(s)                       : 6 channels
Channel positions                : Front: L C R, Side: L R, LFE
Sampling rate                    : 48.0 KHz
Bit depth                        : 16 bits
Compression mode                 : Lossy
Stream size                      : 298 MiB (3%)
Title                            : AC3
Language                         : English
Default                          : No
Forced                           : No

Text
ID                               : 4
Format                           : UTF-8
Codec ID                         : S_TEXT/UTF8
Codec ID/Info                    : UTF-8 Plain Text
Language                         : Dutch
Default                          : Yes
Forced                           : No
.
Enjoy
